<?xml version="1.0" standalone="no"?>
<!DOCTYPE svg PUBLIC "-//W3C//DTD SVG 20010904//EN"
 "http://www.w3.org/TR/2001/REC-SVG-20010904/DTD/svg10.dtd">
<svg version="1.0" xmlns="http://www.w3.org/2000/svg"
 width="767.000000pt" height="217.000000pt" viewBox="0 0 767.000000 217.000000"
 preserveAspectRatio="xMidYMid meet">

<g transform="translate(0.000000,217.000000) scale(0.100000,-0.100000)"
fill="#000000" stroke="none">
<path d="M0 1085 l0 -1085 3835 0 3835 0 0 1085 0 1085 -3835 0 -3835 0 0
-1085z m890 460 c0 -47 3 -85 6 -85 3 0 17 9 31 20 33 26 93 26 124 1 22 -18
24 -27 27 -140 l4 -121 -36 0 -36 0 0 91 c0 109 -8 129 -55 129 -52 0 -65 -27
-65 -132 l0 -88 -35 0 -35 0 0 205 0 205 35 0 35 0 0 -85z m1230 60 c26 -32
-13 -81 -47 -59 -35 22 -23 74 17 74 10 0 23 -7 30 -15z m2296 7 c19 -13 23
-40 7 -53 -19 -17 -43 -20 -43 -7 0 6 7 7 16 4 8 -3 12 -2 9 4 -3 6 -12 10
-20 10 -21 0 -28 19 -15 35 14 16 29 19 46 7z m-3966 -42 l0 -30 -85 0 -85 0
0 -50 0 -50 65 0 65 0 0 -30 0 -30 -65 0 -65 0 0 -50 0 -50 90 0 90 0 0 -30 0
-30 -130 0 -130 0 0 190 0 190 125 0 125 0 0 -30z m2580 -130 l0 -160 80 0 80
0 0 -30 0 -30 -120 0 -120 0 0 190 0 190 40 0 40 0 0 -160z m-2460 40 c0 -11
3 -20 6 -20 3 0 17 9 31 20 33 26 93 26 124 1 22 -18 24 -27 27 -140 l4 -121
-36 0 -36 0 0 93 c0 110 -10 130 -60 125 -47 -4 -60 -33 -60 -135 l0 -83 -35
0 -35 0 0 140 0 140 35 0 c28 0 35 -4 35 -20z m759 5 c16 -8 31 -22 35 -30 3
-9 6 -66 6 -126 l0 -109 -35 0 c-27 0 -35 4 -35 18 0 10 -3 13 -8 6 -34 -52
-138 -41 -162 17 -27 65 13 108 110 116 53 5 60 8 60 27 0 30 -18 46 -52 46
-17 0 -31 -7 -38 -20 -15 -27 -83 -29 -73 -2 9 25 35 53 58 63 33 13 104 10
134 -6z m175 -7 c-2 -23 2 -22 33 2 37 29 97 27 128 -5 24 -23 25 -30 25 -140
l0 -115 -35 0 -35 0 0 98 c0 109 -6 122 -56 122 -48 0 -58 -20 -62 -126 l-4
-94 -34 0 -34 0 0 141 0 140 38 -3 c28 -2 37 -7 36 -20z m454 2 c26 -16 52
-53 52 -76 0 -2 -13 -4 -30 -4 -18 0 -39 10 -55 26 -49 49 -115 8 -115 -73 0
-33 6 -50 25 -68 32 -33 61 -31 95 5 27 29 80 42 80 20 0 -27 -32 -69 -64 -84
-68 -32 -151 -12 -186 46 -24 40 -27 116 -5 159 34 66 135 90 203 49z m170
-122 l3 -138 -36 0 c-31 0 -35 3 -35 28 0 15 -2 75 -3 134 -3 113 -1 118 43
115 l25 -2 3 -137z m283 129 c31 -24 39 -56 39 -161 l0 -106 -35 0 -35 0 0 91
c0 109 -8 129 -55 129 -52 0 -65 -27 -65 -132 l0 -88 -35 0 -35 0 0 135 0 135
35 0 c29 0 35 -4 35 -21 0 -20 1 -20 31 5 33 28 92 35 120 13z m254 1 c14 -6
25 -15 25 -20 0 -4 5 -8 10 -8 6 0 10 7 10 15 0 11 11 15 36 15 l35 0 -3 -156
-3 -156 -32 -28 c-35 -31 -101 -47 -152 -35 -37 8 -91 50 -91 71 0 21 57 17
80 -6 22 -22 60 -26 93 -9 31 17 37 28 37 72 l0 39 -32 -27 c-62 -52 -156 -17
-179 67 -31 116 65 212 166 166z m755 -1 c35 -18 70 -74 70 -113 l0 -34 -100
0 c-90 0 -100 -2 -100 -18 0 -33 25 -54 73 -62 25 -4 45 -4 45 -1 -4 23 18 41
48 41 19 0 34 -4 34 -8 0 -14 -41 -57 -51 -55 -5 2 -9 -2 -9 -8 0 -7 -10 -9
-25 -7 -13 3 -22 1 -19 -3 3 -5 -11 -9 -31 -9 -20 0 -34 4 -31 9 4 5 -3 7 -14
4 -29 -8 -90 58 -92 100 -2 60 4 92 24 120 37 51 122 72 178 44z m323 -16 c19
-19 22 -34 25 -126 2 -58 0 -105 -5 -105 -4 0 -8 25 -7 55 1 50 -1 54 -14 41
-13 -12 -13 -18 -2 -31 11 -13 10 -14 -11 -7 -14 6 -24 17 -24 28 0 16 -6 18
-40 15 -22 -3 -49 -5 -60 -5 -17 -1 -20 -6 -17 -29 3 -15 0 -27 -4 -26 -27 5
-36 -1 -24 -16 10 -12 10 -15 -1 -15 -8 -1 -3 -7 11 -15 33 -19 46 -19 30 0
-7 8 -15 13 -19 11 -4 -3 -7 4 -8 14 -1 13 3 17 13 13 7 -3 12 -9 9 -13 -3 -5
-1 -11 5 -15 5 -3 10 -1 10 4 0 17 37 13 44 -5 4 -9 4 -19 1 -22 -2 -3 -7 2
-11 11 -3 9 -12 13 -21 10 -14 -5 -14 -8 2 -19 16 -12 14 -13 -16 -11 -31 3
-75 24 -77 37 0 3 -4 13 -7 23 -4 9 -4 29 -1 43 9 34 82 67 140 62 40 -3 42
-2 38 22 -3 14 -9 31 -15 38 -15 19 -65 15 -79 -8 -13 -20 -78 -30 -78 -11 0
15 42 62 64 72 38 16 125 5 149 -20z m247 -6 c0 -29 -4 -35 -21 -35 -29 0 -59
-18 -59 -35 0 -8 -4 -15 -8 -15 -5 0 -8 -12 -7 -27 2 -19 1 -21 -2 -5 -2 12
-10 22 -16 22 -7 0 -6 5 3 11 13 9 13 10 -1 6 -9 -3 -21 -1 -27 5 -7 7 -10 5
-8 -6 1 -10 8 -21 15 -25 10 -6 9 -10 -3 -14 -19 -7 -22 -37 -3 -38 9 0 9 -2
-1 -6 -6 -2 -10 -9 -7 -13 3 -5 1 -11 -4 -14 -5 -3 -9 42 -10 104 l-2 110 37
0 c35 0 36 -1 32 -30 -3 -16 -1 -30 4 -30 20 0 -5 -20 -25 -21 -21 0 -21 -1
-2 -8 19 -8 38 8 40 34 3 26 18 43 32 38 10 -4 14 -2 10 4 -6 10 5 20 26 22 4
1 7 -15 7 -34z m263 22 c16 -11 14 -12 -15 -12 -18 0 -37 5 -41 10 -6 6 -10 6
-14 -3 -2 -6 -9 -10 -13 -7 -5 3 -11 1 -15 -5 -3 -5 -1 -10 5 -10 6 0 8 -4 5
-10 -3 -5 -11 -10 -16 -10 -6 0 -7 5 -4 10 3 6 2 10 -2 10 -5 0 -13 -10 -18
-22 -6 -12 -17 -22 -26 -24 -18 -2 -19 11 -5 34 5 8 3 18 -4 25 -7 7 -10 8 -8
2 3 -5 0 -16 -8 -23 -15 -13 -18 -4 -8 22 3 9 14 16 24 16 14 0 18 -7 15 -25
-1 -14 2 -28 6 -31 5 -3 9 1 9 9 0 20 59 57 91 57 14 0 33 -6 42 -13z m-193
-1 c0 -3 -4 -8 -10 -11 -5 -3 -10 -1 -10 4 0 6 5 11 10 11 6 0 10 -2 10 -4z
m-13 -78 c-2 -13 -4 -5 -4 17 -1 22 1 32 4 23 2 -10 2 -28 0 -40z m-323 -130
c-4 -6 -9 -6 -14 2 -5 8 -9 7 -13 -4 -4 -9 -1 -16 5 -16 7 0 3 -6 -8 -14 -30
-23 -41 -1 -14 27 22 23 57 27 44 5z m2426 -326 l0 -38 40 4 c35 4 41 1 50
-23 5 -14 10 -49 10 -76 0 -42 -3 -49 -20 -49 -17 0 -20 7 -20 48 0 58 -11 76
-39 67 -18 -5 -21 -14 -21 -61 0 -47 -2 -54 -20 -54 -19 0 -20 7 -20 110 0
103 1 110 20 110 16 0 20 -7 20 -38z m-83 6 c17 -13 17 -82 1 -96 -7 -6 -30
-13 -50 -17 -35 -7 -38 -10 -38 -41 0 -27 -4 -34 -20 -34 -19 0 -20 7 -20 98
0 54 3 102 8 106 9 10 103 -2 119 -16z m755 -65 l3 -88 43 -3 c28 -2 42 -8 42
-18 0 -11 -15 -14 -65 -14 l-65 0 0 98 c0 100 3 112 26 112 10 0 14 -24 16
-87z m249 -1 c16 -46 31 -92 34 -103 5 -15 1 -19 -18 -19 -18 0 -27 7 -31 25
-5 21 -12 25 -41 25 -29 0 -37 -5 -45 -25 -6 -16 -17 -25 -31 -25 -16 0 -20 4
-14 18 3 9 15 44 26 77 37 112 40 116 67 113 22 -3 29 -14 53 -86z m152 81
c47 -7 67 -39 49 -77 -9 -19 -8 -27 4 -36 20 -17 18 -46 -6 -70 -16 -16 -33
-20 -80 -20 l-60 0 0 98 c0 54 3 102 7 105 8 9 37 9 86 0z m-1379 -17 c43 -18
66 -51 66 -98 0 -48 -22 -69 -69 -67 -20 1 -46 -1 -57 -5 -43 -14 -73 56 -41
96 13 18 25 21 75 19 31 -1 32 -2 32 -47 0 -58 24 -56 28 3 3 34 -1 44 -24 62
-39 31 -89 28 -125 -8 -41 -41 -40 -91 1 -133 32 -31 43 -32 123 -13 15 4 27
3 27 -2 0 -16 -49 -33 -96 -33 -39 0 -51 5 -81 35 -33 33 -35 39 -31 85 6 55
26 85 73 106 39 17 58 17 99 0z m544 -48 c7 -7 12 -39 12 -75 l0 -63 -53 0
c-58 0 -77 12 -77 47 0 25 26 43 64 43 16 0 26 6 26 15 0 8 -9 15 -20 15 -11
0 -20 -4 -20 -10 0 -5 -9 -10 -20 -10 -22 0 -26 20 -8 38 16 16 80 16 96 0z
m169 0 c8 -6 13 -34 13 -74 0 -57 -2 -64 -20 -64 -16 0 -19 8 -22 58 -3 49 -6
57 -23 57 -17 0 -20 -8 -23 -57 -3 -50 -6 -58 -22 -58 -18 0 -20 7 -20 74 l0
74 52 0 c29 1 58 -4 65 -10z m95 -45 c3 -50 6 -58 23 -58 17 0 20 8 23 58 3
49 6 57 22 57 18 0 20 -7 20 -74 l0 -74 -52 0 c-29 -1 -58 4 -65 10 -8 6 -13
34 -13 74 0 57 2 64 20 64 16 0 19 -8 22 -57z m-1672 -319 c0 -8 3 -13 8 -13
25 4 32 -4 32 -36 0 -19 -4 -35 -10 -35 -5 0 -10 14 -10 30 0 17 -4 30 -10 30
-5 0 -10 -13 -10 -30 0 -16 -4 -30 -10 -30 -5 0 -10 25 -10 56 0 34 4 53 10
49 6 -3 10 -13 10 -21z m370 5 c0 -11 4 -17 10 -14 18 11 40 -15 40 -46 0 -36
-17 -38 -22 -4 -4 33 -22 33 -26 0 -6 -47 -22 -25 -22 30 0 30 5 55 10 55 6 0
10 -9 10 -21z m270 0 c0 -11 4 -17 10 -14 18 11 40 -15 40 -46 0 -36 -17 -38
-22 -4 -4 33 -22 33 -26 0 -6 -47 -22 -25 -22 30 0 30 5 55 10 55 6 0 10 -9
10 -21z m1499 -15 c6 -1 16 -2 21 -3 6 0 10 -17 10 -36 0 -19 -4 -35 -10 -35
-5 0 -10 14 -10 30 0 39 -19 39 -26 0 -9 -42 -24 -27 -24 24 0 47 11 67 21 39
3 -10 11 -19 18 -19z m-3554 16 c-3 -5 -15 -10 -26 -10 -26 0 -24 -18 4 -23
l22 -4 -22 -8 c-31 -10 -29 -25 2 -25 14 0 25 -4 25 -10 0 -5 -16 -10 -35 -10
l-35 0 0 50 0 50 36 0 c21 0 33 -4 29 -10z m553 -40 c2 -30 -1 -50 -7 -50 -6
0 -11 22 -11 50 0 65 14 65 18 0z m232 10 c0 -33 3 -40 20 -40 11 0 20 -4 20
-10 0 -5 -13 -10 -30 -10 -29 0 -30 1 -30 50 0 28 5 50 10 50 6 0 10 -18 10
-40z m1160 30 c0 -5 -9 -10 -20 -10 -11 0 -20 -4 -20 -10 0 -5 7 -10 15 -10 8
0 15 -4 15 -10 0 -5 -7 -10 -15 -10 -8 0 -15 -4 -15 -10 0 -5 9 -10 20 -10 11
0 20 -4 20 -10 0 -5 -13 -10 -30 -10 -29 0 -30 1 -30 50 0 49 1 50 30 50 17 0
30 -4 30 -10z m420 0 c0 -5 -2 -10 -4 -10 -3 0 -8 5 -11 10 -3 6 -1 10 4 10 6
0 11 -4 11 -10z m231 -2 c1 -7 1 -25 1 -40 1 -21 6 -28 19 -28 11 0 19 -5 19
-11 0 -6 -12 -9 -27 -7 -26 3 -28 7 -31 51 -2 28 1 47 7 47 6 0 11 -6 12 -12z
m357 -38 c2 -30 -1 -50 -7 -50 -6 0 -11 22 -11 50 0 65 14 65 18 0z m270 36
c-12 -8 -18 -27 -18 -50 0 -20 -4 -36 -10 -36 -5 0 -10 18 -10 40 0 29 -4 40
-15 40 -8 0 -15 5 -15 10 0 6 19 10 43 10 37 -1 40 -2 25 -14z m-1848 -11 c9
-10 9 -15 1 -15 -6 0 -11 -9 -11 -20 0 -11 5 -20 10 -20 6 0 10 -5 10 -11 0
-24 -35 -2 -41 26 -9 51 6 70 31 40z m2125 -33 c1 -50 -16 -51 -26 -1 -8 37
-3 52 14 46 6 -2 11 -22 12 -45z m-3382 11 c5 -12 6 -30 2 -40 -7 -15 -9 -13
-14 12 -7 36 -25 36 -29 0 -5 -35 -22 -31 -22 5 0 17 -4 30 -10 30 -5 0 -10
-13 -10 -30 0 -16 -4 -30 -10 -30 -5 0 -10 17 -10 38 l0 37 46 0 c39 0 49 -4
57 -22z m77 11 c7 -7 10 -22 8 -35 -2 -18 -9 -24 -25 -23 -13 0 -23 -5 -23
-13 0 -7 -4 -13 -10 -13 -5 0 -10 22 -10 48 0 44 2 48 25 47 13 0 29 -5 35
-11z m78 4 c19 -19 14 -56 -8 -63 -41 -13 -69 43 -32 64 22 13 26 13 40 -1z
m42 -16 c1 -15 3 -14 16 3 13 17 16 18 24 5 8 -13 11 -12 24 5 18 24 20 10 5
-34 -13 -36 -17 -37 -35 -13 -13 16 -13 16 -14 0 0 -44 -40 4 -40 48 0 21 20
7 20 -14z m138 19 c8 -5 12 -21 10 -37 -4 -35 -35 -45 -55 -18 -17 23 -16 29
3 48 18 18 24 19 42 7z m57 -21 c-8 -9 -15 -24 -15 -34 0 -9 -4 -14 -10 -11
-11 7 -14 58 -4 67 3 3 14 3 25 1 18 -5 18 -7 4 -23z m113 16 c14 -8 17 -66 3
-66 -5 0 -11 11 -13 25 -2 14 -7 26 -13 26 -5 0 -11 -12 -13 -26 -5 -37 -22
-31 -22 8 0 19 2 36 5 39 7 7 38 4 53 -6z m90 -36 c-3 -39 -6 -45 -27 -48 -13
-2 -28 2 -35 9 -8 9 -6 10 11 6 13 -3 25 -1 28 3 3 5 -5 10 -17 12 -46 6 -30
67 18 64 23 -1 25 -4 22 -46z m170 41 c8 -5 12 -21 10 -37 -2 -23 -8 -29 -28
-29 -20 0 -26 6 -28 29 -3 25 10 46 28 46 3 0 11 -4 18 -9z m84 -15 c14 -33 4
-56 -26 -56 -29 0 -42 16 -27 34 6 7 8 16 4 20 -7 7 14 26 30 26 4 0 12 -11
19 -24z m50 2 c-7 -7 -12 -22 -12 -35 0 -13 -4 -23 -10 -23 -5 0 -10 15 -10
34 0 25 5 36 18 38 23 6 28 0 14 -14z m76 9 c14 -11 17 -67 3 -67 -5 0 -11 11
-13 25 -2 14 -7 26 -13 26 -5 0 -11 -12 -13 -26 -5 -37 -22 -31 -22 8 0 19 2
36 5 39 9 8 39 6 53 -5z m80 1 c17 -17 15 -43 -4 -59 -31 -26 -70 25 -44 56
15 18 32 19 48 3z m62 0 c0 -4 -4 -10 -10 -13 -5 -3 -10 -17 -10 -31 0 -13 -4
-24 -10 -24 -5 0 -10 17 -10 38 0 31 4 38 20 38 11 0 20 -4 20 -8z m55 -9 c0
-8 4 -19 8 -25 9 -15 -18 -38 -37 -31 -16 6 -18 59 -2 69 15 11 31 4 31 -13z
m216 -2 c-6 -6 -11 -21 -11 -34 0 -13 -4 -23 -10 -23 -5 0 -10 18 -10 39 0 35
2 39 21 34 14 -4 17 -9 10 -16z m73 7 c27 -27 12 -64 -26 -64 -15 0 -38 27
-38 44 0 8 31 36 40 36 5 0 16 -7 24 -16z m46 -20 c0 -13 5 -24 10 -24 6 0 10
11 10 24 0 14 5 28 10 31 6 4 10 -10 10 -35 0 -39 -1 -41 -27 -38 -25 3 -28 8
-31 42 -2 25 0 36 7 31 6 -3 11 -17 11 -31z m121 26 c10 0 12 -50 3 -74 -7
-18 -64 -22 -64 -5 0 6 7 9 15 6 8 -4 17 -2 20 3 4 6 -3 10 -14 10 -12 0 -21
2 -21 4 0 2 -3 11 -6 19 -7 19 24 50 43 43 8 -3 19 -6 24 -6z m267 -2 c14 -14
16 -68 3 -68 -5 0 -11 12 -13 28 -2 15 -7 27 -13 27 -5 0 -11 -12 -13 -27 -5
-40 -22 -35 -22 6 0 32 4 37 41 45 3 0 10 -4 17 -11z m146 6 c10 -4 16 -18 16
-41 0 -32 -2 -34 -27 -31 -35 4 -41 31 -11 46 l23 12 -22 -6 c-24 -6 -32 11
-10 19 6 3 13 6 14 6 1 1 8 -2 17 -5z m89 -3 c11 -1 8 -71 -3 -71 -5 0 -10 14
-10 30 0 40 -17 38 -28 -2 l-9 -33 -8 27 c-10 38 -1 55 27 52 12 -1 26 -3 31
-3z m77 -6 c11 -13 9 -15 -11 -13 -16 2 -24 -2 -24 -12 0 -10 8 -14 23 -12 27
2 25 -21 -2 -26 -39 -8 -63 47 -28 67 23 14 27 13 42 -4z m113 6 c11 -1 8 -71
-3 -71 -5 0 -10 14 -10 30 0 17 -4 30 -10 30 -5 0 -10 -13 -10 -30 0 -16 -4
-30 -10 -30 -5 0 -10 17 -10 38 0 40 -2 39 53 33z m95 -30 c2 -18 -2 -39 -9
-47 -14 -17 -59 -19 -59 -3 0 6 7 9 15 6 8 -4 17 -2 20 3 4 6 -3 10 -14 10
-12 0 -21 2 -21 4 0 2 -3 11 -6 19 -7 20 20 44 48 42 18 -1 24 -8 26 -34z
m170 27 c17 -17 15 -43 -4 -59 -31 -26 -70 25 -44 56 15 18 32 19 48 3z m66 6
c10 -4 16 -18 16 -41 0 -32 -2 -34 -27 -31 -35 4 -41 31 -11 46 l23 12 -22 -6
c-24 -6 -32 11 -10 19 6 3 13 6 14 6 1 1 8 -2 17 -5z m61 -24 c-8 -9 -15 -24
-15 -34 0 -9 -4 -14 -10 -11 -11 7 -14 58 -4 67 3 3 14 3 25 1 18 -5 18 -7 4
-23z m78 21 c11 -1 8 -71 -3 -71 -5 0 -10 14 -10 30 0 17 -4 30 -10 30 -5 0
-10 -13 -10 -30 0 -16 -4 -30 -10 -30 -5 0 -10 17 -10 38 0 40 -2 39 53 33z
m115 -5 c14 -8 17 -66 3 -66 -5 0 -11 11 -13 25 -2 14 -7 26 -13 26 -5 0 -11
-12 -13 -26 -5 -37 -22 -31 -22 8 0 19 2 36 5 39 7 7 38 4 53 -6z m90 -36 c-3
-39 -6 -45 -27 -48 -13 -2 -28 2 -35 9 -8 9 -6 10 11 6 13 -3 25 -1 28 3 3 5
-5 10 -17 12 -46 6 -30 67 18 64 23 -1 25 -4 22 -46z m166 44 c22 -8 21 -63 0
-71 -39 -15 -71 40 -38 64 21 15 18 15 38 7z m94 -44 c-3 -39 -6 -45 -27 -48
-13 -2 -28 2 -35 9 -8 9 -6 10 11 6 13 -3 25 -1 28 3 3 5 -5 10 -17 12 -46 6
-30 67 18 64 23 -1 25 -4 22 -46z m70 41 c8 -5 12 -21 10 -37 -2 -23 -8 -29
-28 -29 -20 0 -26 6 -28 29 -3 25 10 46 28 46 3 0 11 -4 18 -9z m210 -3 c19
-19 14 -56 -8 -63 -41 -13 -69 43 -32 64 22 13 26 13 40 -1z m-1288 -33 c0
-19 -4 -35 -10 -35 -5 0 -10 16 -10 35 0 19 5 35 10 35 6 0 10 -16 10 -35z
m1342 23 c-7 -7 -12 -22 -12 -35 0 -13 -4 -23 -10 -23 -5 0 -10 16 -10 35 0
29 4 35 22 35 17 0 19 -3 10 -12z"/>
<path d="M4387 1598 c-16 -12 -15 -14 8 -25 29 -13 40 -3 22 21 -10 14 -15 15
-30 4z"/>
<path d="M1204 1319 c-24 -26 -9 -53 33 -57 36 -4 63 19 63 54 0 21 -4 24 -38
24 -27 0 -45 -7 -58 -21z"/>
<path d="M2590 1430 c-14 -14 -20 -33 -20 -65 0 -32 6 -51 20 -65 46 -46 120
-4 120 68 0 70 -74 108 -120 62z"/>
<path d="M3307 1432 c-10 -10 -17 -26 -17 -35 0 -14 11 -17 65 -17 69 0 78 8
55 51 -14 26 -80 26 -103 1z"/>
<path d="M3552 1341 c-11 -7 -11 -9 0 -14 9 -3 15 1 15 9 0 8 -1 14 -1 14 -1
0 -7 -4 -14 -9z"/>
<path d="M3933 1445 c0 -7 6 -11 14 -8 7 3 13 6 13 8 0 2 -6 5 -13 8 -8 3 -14
-1 -14 -8z"/>
<path d="M5980 910 c0 -28 3 -31 28 -28 21 2 27 8 27 28 0 20 -6 26 -27 28
-25 3 -28 0 -28 -28z"/>
<path d="M7002 891 c-14 -39 -12 -44 16 -39 17 3 18 6 7 38 l-12 34 -11 -33z"/>
<path d="M7180 915 c0 -27 26 -35 47 -14 17 17 4 39 -23 39 -19 0 -24 -5 -24
-25z"/>
<path d="M7180 830 c0 -28 3 -31 28 -28 21 2 27 8 27 28 0 20 -6 26 -27 28
-25 3 -28 0 -28 -28z"/>
<path d="M5770 844 c0 -33 33 -30 38 4 3 17 -2 22 -17 22 -16 0 -21 -6 -21
-26z"/>
<path d="M6317 823 c-14 -13 -6 -24 15 -21 27 4 36 28 11 28 -11 0 -23 -3 -26
-7z"/>
<path d="M3727 513 c-13 -12 -7 -33 8 -33 8 0 15 9 15 20 0 20 -11 26 -23 13z"/>
<path d="M3807 513 c-13 -12 -7 -33 8 -33 8 0 15 9 15 20 0 20 -11 26 -23 13z"/>
<path d="M4235 510 c-8 -13 4 -32 16 -25 12 8 12 35 0 35 -6 0 -13 -4 -16 -10z"/>
<path d="M4428 483 c7 -3 16 -2 19 1 4 3 -2 6 -13 5 -11 0 -14 -3 -6 -6z"/>
<path d="M4708 483 c7 -3 16 -2 19 1 4 3 -2 6 -13 5 -11 0 -14 -3 -6 -6z"/>
<path d="M5110 500 c0 -13 5 -20 13 -17 6 2 12 10 12 17 0 7 -6 15 -12 18 -8
2 -13 -5 -13 -18z"/>
<path d="M5270 500 c0 -13 5 -20 13 -17 6 2 12 10 12 17 0 7 -6 15 -12 18 -8
2 -13 -5 -13 -18z"/>
<path d="M6047 514 c-8 -8 3 -34 14 -34 5 0 9 9 9 20 0 19 -11 26 -23 14z"/>
<path d="M6238 483 c7 -3 16 -2 19 1 4 3 -2 6 -13 5 -11 0 -14 -3 -6 -6z"/>
<path d="M6635 510 c-4 -6 -3 -16 3 -22 6 -6 12 -6 17 2 4 6 3 16 -3 22 -6 6
-12 6 -17 -2z"/>
<path d="M6815 510 c-7 -12 2 -30 16 -30 5 0 9 9 9 20 0 21 -15 27 -25 10z"/>
<path d="M6895 510 c-7 -12 2 -30 16 -30 5 0 9 9 9 20 0 21 -15 27 -25 10z"/>
<path d="M6988 483 c7 -3 16 -2 19 1 4 3 -2 6 -13 5 -11 0 -14 -3 -6 -6z"/>
</g>
</svg>
